# xmcd
#
# Track frame offsets: 
#        150
#        20467
#        40764
#
# Disc length: 761 seconds
#
# Revision: 0
# Processed by: cddbd v1.5.2PL0 Copyright (c) Steve Scherf et al.
# Submitted via: ExactAudioCopy v0.95b3
#
DISCID=1902f703
DTITLE=Ms. Dynamite - Dy-na-mi-tee
DYEAR=2002
DGENRE=R&B
TTITLE0=Dy-na-mi-tee (Swizz Beatz Remix Feat. Nas)
TTITLE1=Dy-na-mi-tee (Swizz Beatz Remix Remix)
TTITLE2=Dy-na-mi-tee
EXTD=
EXTT0=
EXTT1=
EXTT2=
PLAYORDER=
